# xmcd
#
# Track frame offsets:
#	150
#	23837
#	38408
#	45298
#	60830
#	79809
#	121709
#	133955
#	147825
#
# Disc length: 2228 seconds
#
# Revision: 0
# Processed by: cddbd v1.5.1PL2 Copyright (c) Steve Scherf et al.
# Submitted via: EasyCDDAExtractor 5.0.2.1
#
DISCID=6608b209
DTITLE=Harlots - This is The Second Death
DYEAR=2006
DGENRE=
TTITLE0=These are the Paths That We Choose
TTITLE1=These are the Paths That We Create
TTITLE2=Moment of Desperation
TTITLE3=Those Days Seem Several Hundred Years Ago
TTITLE4=Remote Coagulation
TTITLE5=Moment of Sickness
TTITLE6=Asceticism
TTITLE7=War of the Great City
TTITLE8=Fall of the Matriarch
EXTD=
EXTT0=
EXTT1=
EXTT2=
EXTT3=
EXTT4=
EXTT5=
EXTT6=
EXTT7=
EXTT8=
PLAYORDER=
